<?xml version="1.0" standalone="no"?>
<!DOCTYPE svg PUBLIC "-//W3C//DTD SVG 20010904//EN"
 "http://www.w3.org/TR/2001/REC-SVG-20010904/DTD/svg10.dtd">
<svg version="1.0" xmlns="http://www.w3.org/2000/svg"
 width="1000.000000pt" height="1000.000000pt" viewBox="0 0 1000.000000 1000.000000"
 preserveAspectRatio="xMidYMid meet">
<metadata>
Created by potrace 1.11, written by Peter Selinger 2001-2013
</metadata>
<g transform="translate(0.000000,1000.000000) scale(0.100000,-0.100000)"
fill="#000000" stroke="none">
<path d="M6295 9943 c-342 -78 -512 -135 -771 -257 -306 -143 -531 -274 -565
-330 -37 -59 -99 -278 -119 -416 -6 -36 -16 -96 -24 -135 -8 -38 -20 -122 -26
-185 -16 -154 -33 -222 -68 -278 -17 -26 -42 -74 -57 -106 -42 -97 -19 -111
72 -46 31 22 57 39 59 37 1 -1 13 -32 27 -69 23 -63 23 -67 5 -71 -27 -7 -22
-23 13 -44 24 -14 30 -24 28 -48 -1 -16 2 -54 6 -84 7 -46 12 -55 35 -64 23
-9 29 -20 42 -76 l16 -66 -73 -115 c-115 -180 -114 -196 10 -260 47 -25 85
-48 85 -51 0 -43 -24 -117 -43 -134 -38 -32 -97 -275 -96 -397 1 -27 -6 -57
-16 -71 -18 -28 -10 -58 21 -75 13 -7 13 -12 -3 -41 -16 -28 -16 -33 -2 -41 9
-5 16 -26 18 -52 3 -65 80 -201 172 -306 81 -91 117 -117 243 -168 l59 -24
156 26 c174 29 278 57 409 109 49 19 91 35 93 35 2 0 4 -19 4 -42 -1 -24 3
-45 7 -48 4 -3 9 -29 12 -57 3 -39 1 -53 -10 -57 -8 -3 -14 -11 -14 -18 0 -9
3 -8 10 2 5 8 10 10 10 4 0 -6 -18 -34 -39 -61 -36 -44 -62 -66 -198 -162 -41
-30 -256 -143 -321 -170 -30 -13 -33 -12 -53 13 -11 15 -31 26 -44 26 -101 0
-458 -180 -514 -259 -32 -46 -52 -92 -53 -121 -1 -20 -13 -41 -40 -67 -22 -21
-79 -90 -126 -153 -47 -63 -124 -162 -170 -220 -47 -57 -91 -119 -98 -137 -8
-17 -20 -36 -27 -40 -29 -17 -211 -314 -302 -493 -21 -41 -42 -82 -47 -90 -4
-8 -22 -42 -39 -75 -31 -58 -31 -59 -44 -35 -7 14 -44 117 -83 230 -39 113
-84 242 -101 288 -17 45 -28 82 -25 82 3 0 -4 15 -15 34 -12 18 -21 42 -21 53
0 10 -15 57 -34 104 -19 46 -37 101 -41 123 -4 21 -24 68 -43 104 -20 37 -54
126 -77 197 l-42 130 -57 0 -56 0 -16 45 c-9 25 -39 95 -65 157 -27 61 -49
118 -49 126 0 7 -20 40 -45 71 -25 32 -45 64 -45 71 0 25 -50 74 -83 80 -46
10 -204 83 -258 120 -25 17 -72 37 -105 44 -80 18 -112 30 -118 47 -4 10 -24
14 -71 14 -36 0 -78 6 -93 14 -18 9 -76 15 -169 18 -89 3 -147 9 -156 16 -8 7
-21 10 -30 6 -33 -12 -195 46 -242 87 -11 9 -35 20 -53 24 -19 4 -43 17 -54
30 -11 13 -26 21 -33 18 -20 -7 -140 76 -241 169 -121 110 -180 143 -259 143
-84 0 -95 -11 -95 -102 0 -39 4 -75 10 -78 5 -3 10 -12 10 -20 0 -7 23 -51 50
-96 28 -46 49 -88 47 -93 -3 -6 0 -19 4 -28 9 -17 190 -169 239 -201 14 -9 34
-30 45 -47 15 -22 28 -30 50 -30 17 -1 41 -7 53 -14 24 -13 23 -13 -27 -45
-28 -18 -58 -31 -66 -27 -34 13 -77 -73 -56 -112 5 -10 11 -47 12 -83 1 -39 9
-79 21 -102 12 -25 16 -43 10 -50 -21 -27 -72 -187 -67 -209 4 -15 25 -34 60
-53 39 -21 55 -35 55 -50 0 -24 -17 -93 -31 -120 -5 -11 -6 -33 -1 -50 11 -39
39 -45 232 -44 204 1 237 0 263 -10 27 -10 121 -4 162 11 17 6 45 23 64 37 20
14 36 20 38 14 2 -6 22 -9 44 -7 42 4 85 -13 108 -40 15 -17 86 -23 76 -6 -3
6 3 10 15 10 12 0 18 -4 15 -10 -8 -13 50 -13 74 -1 21 12 178 14 241 3 l45
-7 17 -115 17 -115 -40 -80 c-44 -89 -62 -154 -38 -139 10 6 9 1 -3 -17 -13
-20 -15 -40 -11 -86 4 -45 1 -73 -12 -107 -16 -41 -17 -68 -12 -219 7 -193 24
-524 37 -727 4 -74 4 -142 0 -151 -5 -8 -5 -33 1 -55 5 -21 9 -94 10 -161 1
-68 4 -123 8 -123 9 0 27 -227 41 -510 6 -113 11 -230 13 -260 3 -50 8 -62 57
-125 47 -61 195 -227 247 -277 262 -255 359 -322 613 -431 153 -66 263 -91
385 -90 128 1 155 5 172 29 7 10 19 19 26 19 19 0 53 23 45 31 -9 9 35 44 56
44 9 0 16 6 16 14 0 7 11 21 25 30 26 17 39 21 31 8 -10 -17 -34 -233 -41
-377 -5 -89 -17 -247 -39 -500 -8 -93 -18 -216 -22 -272 l-7 -103 2493 0 2492
0 -8 97 c-4 54 -7 107 -7 118 0 11 -5 88 -13 170 -7 83 -16 233 -19 335 -3
102 -9 230 -15 285 -5 55 -12 179 -15 275 -3 96 -10 218 -15 270 -16 158 -29
329 -35 449 -5 122 -22 636 -22 686 0 17 -7 129 -16 250 -9 121 -19 398 -22
615 -9 615 -27 757 -116 933 -27 54 -59 121 -70 150 -48 122 -72 168 -82 155
-6 -10 -7 -8 -3 4 7 24 -43 142 -102 241 -27 45 -57 98 -67 117 -22 44 -83
120 -94 117 -5 -1 -34 22 -65 51 -55 51 -64 56 -98 53 -10 -1 -18 4 -18 13 0
8 -45 61 -100 118 l-101 103 -59 2 c-51 1 -69 7 -132 46 -208 128 -240 147
-250 147 -10 0 -204 105 -224 121 -7 5 -9 29 -6 58 4 43 1 51 -26 79 -17 18
-50 60 -73 94 -22 35 -66 86 -95 113 -51 47 -56 56 -79 140 -14 50 -25 111
-25 137 0 26 -11 102 -24 170 -13 68 -33 182 -45 253 -12 72 -26 152 -31 178
-15 72 -12 125 9 209 24 93 57 160 114 230 143 176 219 337 282 598 23 98 25
122 25 356 0 278 -12 438 -41 529 -10 33 -19 69 -19 81 0 32 -93 149 -229 286
-87 88 -129 124 -141 121 -10 -3 -21 1 -26 8 -5 9 -2 10 10 6 29 -11 14 8 -44
58 -129 110 -354 238 -485 276 -38 11 -133 26 -210 34 -147 15 -148 15 -180 8z
m475 -138 c25 -13 41 -24 35 -24 -5 0 -30 11 -55 24 -25 13 -40 24 -35 24 6 0
30 -11 55 -24z m-1904 -4571 c-4 -9 -9 -15 -11 -12 -3 3 -3 13 1 22 4 9 9 15
11 12 3 -3 3 -13 -1 -22z m-1516 -58 c0 -11 -19 -15 -25 -6 -3 5 1 10 9 10 9
0 16 -2 16 -4z m-1820 -241 c11 -13 10 -14 -4 -9 -9 3 -16 10 -16 15 0 13 6
11 20 -6z m1316 -471 c-4 -9 -9 -15 -11 -12 -3 3 -3 13 1 22 4 9 9 15 11 12 3
-3 3 -13 -1 -22z"/>
<path d="M3087 1313 c-4 -3 -7 -11 -7 -17 0 -6 5 -5 12 2 6 6 9 14 7 17 -3 3
-9 2 -12 -2z"/>
</g>
</svg>
